<?xml version="1.0" encoding="UTF-8" standalone="no"?>
<svg
   xmlns:dc="http://purl.org/dc/elements/1.1/"
   xmlns:cc="http://creativecommons.org/ns#"
   xmlns:rdf="http://www.w3.org/1999/02/22-rdf-syntax-ns#"
   xmlns:svg="http://www.w3.org/2000/svg"
   xmlns="http://www.w3.org/2000/svg"
   xmlns:sodipodi="http://sodipodi.sourceforge.net/DTD/sodipodi-0.dtd"
   xmlns:inkscape="http://www.inkscape.org/namespaces/inkscape"
   version="1.1"
   id="svg10"
   width="1231.746"
   height="965.07935"
   viewBox="0 0 1231.746 965.07935"
   sodipodi:docname="logo.svg"
   inkscape:version="1.0.2-2 (e86c870879, 2021-01-15)">
  <metadata
     id="metadata16">
    <rdf:RDF>
      <cc:Work
         rdf:about="">
        <dc:format>image/svg+xml</dc:format>
        <dc:type
           rdf:resource="http://purl.org/dc/dcmitype/StillImage" />
        <dc:title></dc:title>
      </cc:Work>
    </rdf:RDF>
  </metadata>
  <defs
     id="defs14" />
  <sodipodi:namedview
     pagecolor="#20b2aa"
     bordercolor="#666666"
     borderopacity="1"
     objecttolerance="10"
     gridtolerance="10"
     guidetolerance="10"
     inkscape:pageopacity="0"
     inkscape:pageshadow="2"
     inkscape:window-width="1600"
     inkscape:window-height="829"
     id="namedview12"
     showgrid="false"
     inkscape:zoom="0.34297698"
     inkscape:cx="996.93378"
     inkscape:cy="452.47947"
     inkscape:window-x="-8"
     inkscape:window-y="-8"
     inkscape:window-maximized="1"
     inkscape:current-layer="g18" />
  <g
     inkscape:groupmode="layer"
     inkscape:label="Image"
     id="g18">
    <path
       style="fill:#fefefe;stroke-width:1"
       d="M 438.4712,965.77264 C 224.2619,932.82501 54.579504,776.97742 11.514104,573.62685 3.4505039,535.55116 0.42540387,460.05887 5.3795039,420.53522 14.651704,346.5626 43.733304,272.73611 88.704704,209.0059 110.369,178.30486 167.2454,121.25793 197.1692,100.21613 268.2288,50.248668 348.6516,19.18356 434.595,8.5052097 462.2533,5.0687052 533.96,5.0609741 561.7124,8.4914957 708.2208,26.601661 841.875,104.05664 923.9137,218.39352 c 8.8234,12.29712 16.0655,22.96914 16.0937,23.71559 0.028,0.74645 -3.5309,3.47312 -7.9089,6.05925 -6.5985,3.89788 -8.3001,4.10011 -9.9488,1.1825 C 915.43,237.45948 885.364,200.08883 866.9425,180.73103 708.6285,14.370143 450.8472,-24.774978 253.7484,87.615055 161.7983,140.047 90.340504,220.76122 52.969104,314.40272 c -20.2375,50.7089 -29.2366,92.79891 -31.4941,147.30159 -8.2793,199.88419 120.642496,385.18722 319.563196,459.31743 89.0488,33.18516 186.4416,40.66694 280.2901,21.53209 78.6395,-16.03386 158.3732,-55.03073 219.8296,-107.51619 21.4105,-18.28518 51.2348,-50.19089 64.6409,-69.15213 8.5908,-12.1507 10.1826,-12.64818 18.9395,-5.91901 l 6.2672,4.81595 -6.4179,9.02009 c -31.4074,44.14184 -84.8612,92.78537 -135.7168,123.50359 -61.9855,37.44099 -133.0842,61.8271 -206.8409,70.9443 -34.1025,4.2155 -108.377,2.93352 -143.5587,-2.47779 z m 95.2381,-472.3223 v -218.4127 h 8.8889 8.8889 v 218.4127 218.4127 h -8.8889 -8.8889 z M 174.3442,707.05242 c -7.7949,-3.38984 -14.3908,-11.89664 -16.2418,-20.9471 -1.4648,-7.16183 -4.5305,-9.73077 -24.4625,-20.49826 -25.4913,-13.77077 -29.137,-17.34075 -29.137,-28.53232 0,-7.88058 49.8199,-112.66549 57.7205,-121.40218 6.4655,-7.14969 14.201,-5.3505 46.4065,10.79365 16.719,8.38095 30.8135,15.2381 31.3213,15.2381 0.5077,0 2.9318,-4.45435 5.3868,-9.89857 4.3816,-9.71654 4.3593,-10.03964 -1.2103,-17.57297 -8.8323,-11.94629 -7.3534,-27.32346 5.0263,-52.26144 27.7465,-55.89318 66.8016,-87.46552 104.8753,-84.78164 18.4398,1.29986 26.125,8.09032 40.5958,35.86946 17.1689,32.95876 39.3299,53.77737 68.0203,63.89991 29.9004,10.54946 36.8294,40.81364 12.254,53.52206 -18.84,9.74255 -58.5774,-5.35413 -88.5721,-33.6496 -9.4973,-8.95929 -17.8648,-15.32368 -18.5944,-14.14314 -1.8982,3.07137 2.0966,19.48224 15.0328,61.75492 16.1047,52.62682 23.7657,88.38989 25.636,119.67388 l 1.6247,27.17478 -9.0157,9.0157 c -10.0237,10.02369 -17.8186,11.34359 -30.7507,5.20691 -12.0789,-5.73184 -14.7465,-12.30461 -17.643,-43.47109 l -2.6491,-28.5057 -10.6328,18.65795 c -23.4352,41.12351 -36.5125,54.82393 -53.9276,56.4973 -11.5642,1.11116 -12.7486,0.64249 -20.4003,-8.07228 -11.2019,-12.7582 -10.8106,-22.60424 1.8117,-45.58791 13.5672,-24.70453 30.2301,-65.46469 34.8332,-85.2079 3.7198,-15.95492 3.649,-16.81579 -3.1323,-38.09524 l -6.938,-21.77142 -10.1567,9.82808 c -7.6122,7.36595 -17.5958,24.87642 -39.8507,69.89575 -16.3317,33.03721 -30.4846,62.55837 -31.4508,65.60261 -0.9662,3.04422 -0.4906,10.23693 1.0569,15.98383 3.2431,12.04403 0.2617,24.56376 -7.5284,31.61374 -5.565,5.03619 -21.9541,7.36815 -29.3079,4.17013 z m 16.0938,-26.66027 c 1.0329,-5.36391 -3.7603,-9.35187 -8.8794,-7.3875 -3.6024,1.38237 -4.6258,8.85435 -1.6239,11.85623 3.1505,3.15055 9.5612,0.42308 10.5033,-4.46873 z m 96.6902,3.65847 c 11.8627,-6.3487 38.2102,-48.91475 48.7362,-78.73615 7.256,-20.55713 12.1711,-25.98014 19.4322,-21.44036 5.9256,3.70476 10.0314,20.62639 15.0334,61.95718 4.4347,36.64368 7.7704,44.95124 15.1047,37.61702 8.3489,-8.34896 -3.5876,-74.46662 -25.008,-138.52142 -10.1541,-30.36473 -10.8444,-34.21443 -10.8444,-60.47934 0,-22.57732 0.8786,-29.39094 4.503,-34.92064 6.7377,-10.27969 12.6493,-8.57221 24.4541,7.06309 15.8354,20.97386 32.5746,35.88294 50.9887,45.41397 20.7994,10.76571 28.4169,12.59939 34.3419,8.26689 7.269,-5.31522 3.0363,-10.46049 -13.7782,-16.7487 -30.9213,-11.56381 -56.3352,-36.30565 -74.4034,-72.43588 -10.7129,-21.422 -13.646,-24.15363 -25.8648,-24.0881 -14.1996,0.0762 -29.4273,7.50476 -44.735,21.82339 -23.1382,21.64302 -50.6424,70.40779 -45.3203,80.35233 3.7912,7.08391 7.7475,4.34295 15.8317,-10.96859 13.8478,-26.22748 19.0322,-32.85021 25.716,-32.85021 7.3889,0 8.0851,2.33613 9.839,33.01587 0.7405,12.95406 3.4472,27.68135 6.768,36.8254 10.6205,29.24404 3.3944,63.30585 -25.9697,122.41272 -16.6173,33.44882 -17.9431,43.46205 -4.8251,36.44153 z m -80.1964,-75.04473 c 10.5509,-22.3492 19.535,-42.1217 19.9646,-43.93889 0.7416,-3.13692 -45.5284,-30.98174 -51.4827,-30.98174 -2.24,0 -50.5933,95.59174 -50.5933,100.02019 0,0.76678 8.5886,6.37206 19.0858,12.45618 l 19.0858,11.06202 12.3782,-3.99142 12.3781,-3.99142 z m 786.5898,79.36508 c -1.2562,-3.14286 -10.7826,-24 -21.1697,-46.3492 -14.8401,-31.93052 -20.5727,-41.72297 -26.7615,-45.71429 -4.3318,-2.79365 -7.92,-5.93651 -7.9738,-6.98413 -0.054,-1.04761 11.9022,-1.90476 26.5689,-1.90476 16.0846,0 26.6666,1.00782 26.6666,2.53969 0,1.39682 -1.5743,2.53968 -3.4985,2.53968 -1.9242,0 -4.8765,1.66026 -6.5606,3.6895 -2.4679,2.97361 -0.4764,9.39774 10.2636,33.10801 7.329,16.18019 14.1816,28.5199 15.2279,27.42161 3.3372,-3.50281 25.2025,-53.93008 25.2025,-58.12361 0,-2.21724 -2.2857,-4.62907 -5.0794,-5.35964 -11.0842,-2.89859 -4.0783,-5.81524 13.9683,-5.81524 10.4762,0 19.0404,0.85715 19.0316,1.90476 -0.01,1.04762 -3.1517,3.71368 -6.9842,5.92458 -5.448,3.14288 -11.616,14.36195 -28.2746,51.42857 -12.7858,28.44934 -22.7135,47.40876 -24.8248,47.40876 -1.9349,0 -4.546,-2.57143 -5.8023,-5.71429 z m 113.7396,3.21745 c -32.7302,-6.02136 -49.4241,-49.44945 -31.8729,-82.91492 19.2544,-36.71296 82.2642,-32.11883 87.4272,6.37443 l 1.4038,10.4659 h -38.5447 -38.5448 l 1.6714,9.52381 c 3.8773,22.09397 19.0698,36.19048 39.0042,36.19048 13.3696,0 21.328,-4.54776 26.9359,-15.39226 4.5901,-8.87629 8.8257,-9.722 8.7674,-1.7506 -0.072,9.89478 -10.9492,25.70052 -21.6223,31.42059 -12.2753,6.57872 -22.3286,8.34479 -34.6252,6.08257 z m 28.3528,-77.67012 c 0,-11.25564 -15.2165,-22.79736 -26.3665,-19.99891 -6.5896,1.65389 -17.6452,12.36155 -20.1656,19.53095 -1.4167,4.02989 0.6806,4.44444 22.4848,4.44444 20.131,0 24.0473,-0.64759 24.0473,-3.97648 z m -294.4931,70.50895 c -6.2865,-6.28647 -7.7291,-9.82936 -7.7291,-18.98212 0,-17.24218 13.1969,-28.4515 46.9545,-39.88282 11.0739,-3.74994 12.8266,-5.28848 13.4866,-11.83832 0.9902,-9.82707 -7.7891,-21.22603 -16.3479,-21.22603 -9.873,0 -16.1567,4.54451 -16.1567,11.6849 0,13.23141 -8.738,21.08955 -17.9617,16.15314 -3.3115,-1.77221 -4.8954,-5.32386 -4.8954,-10.97676 0,-18.46537 26.5067,-30.31314 54.7165,-24.45679 22.1221,4.59251 24.0136,8.62497 24.0136,51.19231 0,29.40856 0.651,35.54255 3.9042,36.79093 2.1472,0.82397 5.9515,-0.35474 8.4539,-2.6194 5.8955,-5.33534 7.9594,-5.20074 7.9594,0.51913 0,2.55015 -2.5714,6.97877 -5.7143,9.84135 -14.0855,12.82936 -26.9,14.37493 -34.3531,4.14341 l -4.9356,-6.77539 -8.3769,5.96488 c -5.3865,3.83553 -13.1804,6.36323 -21.8329,7.08076 -12.3183,1.02151 -14.1096,0.46233 -21.1851,-6.61318 z m 44.9693,-13.1713 c 8.0408,-4.90255 8.254,-5.48957 8.254,-22.72604 v -17.69352 l -11.8034,4.32285 c -23.2773,8.52498 -32.7127,24.56863 -21.2125,36.06888 6.4257,6.4257 14.2542,6.43451 24.7619,0.0279 z m -255.873,15.21026 c 0,-1.39683 2.6029,-2.53968 5.7841,-2.53968 3.1813,0 8.3242,-1.7791 11.4286,-3.95353 5.5775,-3.90661 5.6445,-4.70897 5.6445,-67.58819 v -63.63464 l -18.084,1.02182 c -15.9619,0.90194 -18.7931,1.84625 -24.127,8.04726 -3.3236,3.864 -6.043,9.24742 -6.043,11.96318 0,2.71576 -1.7143,4.93775 -3.8095,4.93775 -3.0477,0 -3.8096,-3.80952 -3.8096,-19.04762 v -19.04762 h 69.8413 69.8413 v 19.04762 c 0,15.2381 -0.7619,19.04762 -3.8095,19.04762 -2.0953,0 -3.8096,-2.22199 -3.8096,-4.93775 0,-2.71576 -2.7337,-8.11589 -6.0749,-12.00028 -5.4654,-6.35388 -8.0138,-7.16046 -25.3968,-8.03825 l -19.3219,-0.97572 0.2532,59.32521 c 0.1392,32.62887 1.033,62.18234 1.9861,65.67441 1.3373,4.89953 4.1788,6.89546 12.4453,8.74174 19.6056,4.37884 11.0939,6.49635 -26.1132,6.49635 -22.8571,0 -36.8254,-0.96332 -36.8254,-2.53968 z m 114.2857,0 c 0,-1.39683 1.7143,-2.53968 3.8096,-2.53968 2.0952,0 6.0952,-2.28572 8.8888,-5.07937 4.512,-4.51192 5.0794,-8.4656 5.0794,-35.39022 0,-36.08907 -2.1359,-43.85539 -11.7723,-42.80503 -13.9235,1.51767 -8.1103,-5.11002 10.1761,-11.60183 10.3969,-3.69097 20.1522,-6.71085 21.6784,-6.71085 1.5262,0 2.7749,4.15413 2.7749,9.23139 v 9.23139 l 5.1191,-6.50786 c 10.8925,-13.84749 33.5795,-14.20511 36.9984,-0.58319 3.1423,12.51977 -7.49,17.61554 -21.5666,10.33625 -6.744,-3.48746 -7.504,-3.30196 -13.9236,3.39861 -6.7092,7.00287 -6.7816,7.46362 -6.0738,38.60947 l 0.7164,31.52203 8.199,3.80953 c 4.5094,2.09523 8.2237,4.66666 8.254,5.71428 0.03,1.04762 -13.0879,1.90476 -29.1514,1.90476 -17.7778,0 -29.2064,-0.99378 -29.2064,-2.53968 z m 434.2857,0 c 0,-1.39683 2.1458,-2.53968 4.7684,-2.53968 9.9655,0 10.5846,-4.47596 9.8791,-71.42469 l -0.6793,-64.44833 h -7.3967 c -12.9235,0 -9.7497,-5.18544 6.7125,-10.96721 27.074,-9.50877 24.8112,-14.9967 24.8112,60.17356 0,36.14286 0.7475,69.45143 1.661,74.01902 1.205,6.0253 3.6448,9.05359 8.8889,11.03299 13.0685,4.93283 7.62,6.69402 -20.7086,6.69402 -16.9312,0 -27.9365,-1.00048 -27.9365,-2.53968 z M 648.5155,450.69184 c -67.7421,-24.14144 -66.7047,-122.26179 1.5628,-147.80394 16.4764,-6.16459 46.3056,-6.10016 67.3311,0.14553 11.2463,3.34072 12.4769,3.27832 14.7294,-0.74667 6.9626,-12.44155 12.2799,4.53524 12.3461,39.41763 0.02,11.16909 -4.0709,12.50049 -7.8058,2.53968 -8.7922,-23.44856 -26.9215,-36.19048 -51.4919,-36.19048 -29.9329,0 -47.72,16.78725 -54.9499,51.86098 -9.6561,46.84317 15.2045,82.5359 57.5924,82.68642 20.7255,0.0737 27.4259,-2.77117 43.3197,-18.39215 9.1531,-8.99604 14.1323,-12.26539 15.9348,-10.46291 4.3242,4.32422 -13.0001,24.32226 -28.2847,32.65001 -18.0009,9.80767 -49.4277,11.72858 -70.284,4.29598 z m 333.0222,0.11225 c -35.2297,-12.57711 -54.4593,-44.21234 -50.786,-83.54941 2.5561,-27.37234 17.4997,-48.96741 43.0282,-62.18003 14.9087,-7.71624 49.4668,-9.4814 67.6147,-3.45361 17.3747,5.77092 38.4944,25.18412 45.7521,42.05526 6.8192,15.8515 7.4945,42.78674 1.5236,60.76353 -5.5329,16.65795 -21.1922,33.84807 -38.586,42.35809 -18.8527,9.22375 -48.9968,10.98553 -68.5466,4.00617 z m 51.8222,-10.60429 c 13.0144,-5.90768 24.939,-23.2321 27.8165,-40.41249 4.6109,-27.5297 -0.7905,-60.51066 -12.3081,-75.15289 -13.7178,-17.43944 -43.5447,-22.00422 -62.7057,-9.59665 -28.0965,18.1936 -34.7387,76.88122 -12.4455,109.96216 12.6693,18.79987 37.674,25.17229 59.6428,15.19987 z m -273.6189,8.8061 c 0,-2.51904 2.5195,-3.80953 7.4377,-3.80953 15.0239,0 15.4195,-1.78826 15.4195,-69.71169 0,-66.9297 0.3217,-65.41824 -14.6032,-68.60952 -19.0601,-4.07551 -5.9393,-6.44069 35.7295,-6.44069 52.1298,0 65.6214,2.88716 77.6822,16.62372 6.7209,7.65465 7.8581,10.9457 7.8581,22.74136 0,11.71538 -1.1518,15.10336 -7.6513,22.50595 -4.2083,4.79294 -12.2083,10.53773 -17.7778,12.76623 -5.5696,2.22847 -10.1264,4.69612 -10.1264,5.48363 0,2.9107 37.5694,48.50895 45.3883,55.08815 4.452,3.74608 12.0609,7.55517 16.9087,8.46461 5.0339,0.94438 8.8141,3.16614 8.8141,5.18042 0,2.7425 -4.976,3.52688 -22.3739,3.52688 H 880.0726 L 851.6178,417.25986 C 826.4694,385.83571 822.2819,381.70431 815.579,381.70431 h -7.584 l 0.037,24.7619 c 0.046,30.59678 2.7718,37.15581 15.894,38.24856 6.1791,0.51457 9.4654,2.0576 9.4654,4.44445 10e-5,3.01371 -6.471,3.6562 -36.8253,3.6562 -31.0406,0 -36.8254,-0.59843 -36.8254,-3.80952 z m 84.095,-82.76226 c 19.835,-9.95266 22.1033,-37.11508 4.0207,-48.14545 -10.1639,-6.19992 -21.9175,-8.50293 -32.0441,-6.27876 l -7.8176,1.71703 v 30.36188 30.36188 l 13.3333,-1.70659 c 7.3334,-0.93862 17.4618,-3.77813 22.5077,-6.30999 z m -460.8437,9.21648 c -26.5333,-9.46042 -37.4505,-39.42811 -24.2772,-66.64066 7.8452,-16.20604 23.1956,-24.55886 42.559,-23.15825 17.5725,1.27109 28.7034,8.23238 35.9847,22.50502 6.05,11.85877 6.713,34.96454 1.3036,45.42517 -5.1451,9.94948 -17.4942,19.79809 -28.7415,22.92177 -11.9746,3.32569 -14.866,3.21219 -26.8286,-1.05305 z m 31.5473,-26.57633 c 15.384,-15.38397 7.0116,-39.66565 -14.6799,-42.57511 -9.4559,-1.26829 -11.5461,-0.55172 -18.4088,6.31088 -16.1138,16.1138 -5.772,43.68792 16.3854,43.68792 6.8701,0 11.2071,-1.92754 16.7033,-7.42369 z"
       id="path28" />
  </g>
</svg>
